<svg xmlns="http://www.w3.org/2000/svg" fill="#0d597f" viewBox="0 4.28 63.99 55.43"><path d="M23.25 38.81v-6.745l-4.855 4.864q.712.5 1.48.906c.463.243.87.434 1.303.58s.782.24 1.13.304.66.093.95.096m24.822-.562q.067.055.142.1a3 3 0 0 0 .385.203 3 3 0 0 0 .637.194q.446.09.9.087c.3 0 .608-.03.955-.087a7 7 0 0 0 1.138-.301 10 10 0 0 0 1.32-.579q.78-.411 1.503-.918l-3.685-3.6-12.21-12.258-5.356 5.356-7.23-7.455L8.439 36.93a14 14 0 0 0 1.5.918c.47.246.91.434 1.317.58a7 7 0 0 0 1.135.301 5.5 5.5 0 0 0 .955.087 4.5 4.5 0 0 0 .9-.087 3.3 3.3 0 0 0 .637-.194 2.5 2.5 0 0 0 .385-.197l.145-.104 8.193-8.193 2.924-2.808 8.106 8.106 2.837 2.912a1 1 0 0 0 .145.101 2.5 2.5 0 0 0 .385.2q.31.128.637.194c.255.052.556.087.903.087.3 0 .608-.03.955-.087a7 7 0 0 0 1.138-.301 10 10 0 0 0 1.32-.579q.78-.411 1.503-.918l-6.508-6.37 1.2-1.2 5.63 5.63 3.283 3.254m-.07-33.96 15.998 27.714L48.003 59.71H15.996L-.002 31.997 15.996 4.283z"/><path d="m38.02 30.65-4.262-4.256.304-.304 4.3 4.244z"/></svg>